<svg xmlns="http://www.w3.org/2000/svg" viewBox="0 0 47 47"><g fill="none" fill-rule="evenodd" stroke-linecap="round" stroke-linejoin="round"><g stroke-width="1.5"><g transform="translate(-306 -3225) translate(307 3226)"><path stroke="#000" d="M35.248 36.196v6.848c0 1.08-.876 1.956-1.958 1.956H1.958C.877 45 0 44.124 0 43.044V7.828C0 6.748.877 5.87 1.958 5.87h5.875M27.415 5.871h5.875c1.082 0 1.958.876 1.958 1.957v6.847"></path><ellipse cx="17.624" cy="2.935" stroke="#000" rx="2.937" ry="2.935"></ellipse><path stroke="#000" d="M20.395 3.915h5.062c1.082 0 1.958.876 1.958 1.956v1.957c0 1.08-.876 1.956-1.958 1.956H9.791c-1.081 0-1.958-.876-1.958-1.956V5.87c0-1.08.877-1.956 1.958-1.956h5.062M5.875 17.608L29.374 17.608M5.875 25.434L24.412 25.434M5.875 33.259L21.507 33.259"></path><path stroke="#E60975" d="M32.311 33.261l-6.854 1.957 1.958-6.848L39.13 16.667c1.358-1.314 3.52-1.296 4.856.04 1.337 1.335 1.354 3.494.04 4.851L32.31 33.261z"></path></g></g></g></svg>