<svg xmlns="http://www.w3.org/2000/svg" viewBox="0 0 44 44"><g fill="none" fill-rule="evenodd" stroke-linecap="round" stroke-linejoin="round"><g stroke-width="1.5"><g transform="translate(-322 -1630) translate(323 1631)"><circle cx="21.083" cy="21.083" r="21.083" stroke="#000"/><path stroke="#E60975" d="M23.676 23.676c-1.44 1.39-3.726 1.37-5.14-.045-1.415-1.414-1.435-3.701-.045-5.14C19.923 17.059 33.4 8.774 33.4 8.774s-8.283 13.47-9.724 14.902z"/><path stroke="#000" d="M5.5 21.083L8.25 21.083M10.065 10.065L12.008 12.008M21.083 5.5L21.083 8.25M36.667 21.083L33.917 21.083M36.91 35.017c-4.646-3.207-10.182-4.874-15.827-4.767-5.644-.107-11.18 1.56-15.827 4.767"/></g></g></g></svg>