<svg xmlns="http://www.w3.org/2000/svg" viewBox="0 0 51 46"><g fill="none" fill-rule="evenodd" stroke-linecap="round" stroke-linejoin="round"><g stroke-width="1.5"><g transform="translate(-1072 -3226) translate(1073 3227)"><path stroke="#000" d="M33.17 34.51l9.439-3.081c2.366-.69 4.919.146 6.391 2.095-26.053 12.808-17.623 12.733-40.478 5.238L0 44"></path><path stroke="#000" d="M19.174 35.619H30.89c.852.15 1.714-.213 2.19-.924.477-.71.477-1.632 0-2.343-.476-.71-1.338-1.074-2.19-.923H24.5c-2.525-2.563-5.96-4.065-9.587-4.19H8.522L0 31.428"></path><ellipse cx="34.095" cy="2.095" stroke="#000" rx="10.652" ry="2.095"></ellipse><path stroke="#000" d="M44.74 2.095v6.286c0 1.159-4.769 2.095-10.653 2.095S23.435 9.54 23.435 8.381V2.095"></path><path stroke="#000" d="M44.74 8.381v6.286c0 1.158-4.769 2.095-10.653 2.095s-10.652-.937-10.652-2.095V8.38"></path><path stroke="#000" d="M44.74 14.667v6.285c0 1.159-4.769 2.096-10.653 2.096s-10.652-.937-10.652-2.096v-6.285"></path><path stroke="#E60975" d="M8.53 14.667L8.53 16.762M8.53 4.19L8.53 6.286M4.269 10.476L2.139 10.476M14.922 10.476L12.791 10.476"></path></g></g></g></svg>